<svg xmlns="http://www.w3.org/2000/svg" xmlns:xlink="http://www.w3.org/1999/xlink" viewBox="0 0 532.42 94.01"><defs><style>.cls-1{fill:none;}.cls-2{clip-path:url(#clip-path);}.cls-3{fill:#ffbc00;}.cls-4{fill:#fff;}</style><clipPath id="clip-path" transform="translate(0 0)"><rect class="cls-1" width="532.42" height="94.01"/></clipPath></defs><title>Ресурс 1</title><g id="Шар_2" data-name="Шар 2"><g id="Шар_1-2" data-name="Шар 1"><g class="cls-2"><path class="cls-3" d="M341.15,65.14q-2.33,12-12.43,20.41T306.66,94H248.24L266.52,0h58.42q12,0,18.77,8.46t4.49,20.41q-1.67,8.6-11.31,18.13,5.93,9.54,4.27,18.13m-21.49,0a6.1,6.1,0,0,0-1.13-5.24,5.85,5.85,0,0,0-4.82-2.15H288.55L293,36.27h24.85a8.61,8.61,0,0,0,5.65-2.15,8.91,8.91,0,0,0,3.17-5.24,6.11,6.11,0,0,0-1.13-5.24,5.85,5.85,0,0,0-4.82-2.15H283.83l-9.92,51h36.93a8.61,8.61,0,0,0,5.65-2.15,8.9,8.9,0,0,0,3.17-5.24" transform="translate(0 0)"/><polygon class="cls-3" points="421.48 94.01 340.9 94.01 359.18 0.01 439.75 0.01 435.58 21.49 376.49 21.49 373.62 36.27 419.28 36.27 415.1 57.75 369.44 57.75 366.57 72.53 425.66 72.53 421.48 94.01"/><polygon class="cls-3" points="528.24 21.5 495.34 21.5 481.24 94.01 459.75 94.01 473.85 21.5 440.95 21.5 445.12 0.01 532.41 0.01 528.24 21.5"/><polygon class="cls-4" points="100.72 94 79.23 94 87.51 51.43 57.07 94 43.65 94 29.76 51.44 21.49 94 0 94 18.27 0 39.78 0 57.41 57.75 97.48 0 118.99 0 100.72 94"/><polygon class="cls-4" points="186.67 94 106.09 94 124.36 0 204.94 0 200.76 21.49 141.67 21.49 138.8 36.26 184.46 36.26 180.29 57.75 134.63 57.75 131.75 72.52 190.84 72.52 186.67 94"/><polygon class="cls-4" points="260.68 94 192.04 94 210.31 0 231.8 0 217.7 72.52 264.85 72.52 260.68 94"/></g></g></g></svg>